# Blender 4.1.0
# www.blender.org
mtllib CrossHair.mtl
o Cube
v 0.000000 0.585013 -0.553349
v 0.231258 1.767418 -1.408705
v 0.231258 1.440370 -1.735754
v -0.231258 1.767418 -1.408706
v -0.231258 1.440370 -1.735754
v -0.000000 1.827000 -1.349123
v 0.000000 1.380787 -1.795336
v -0.315520 1.603894 -1.572230
v 0.315520 1.603894 -1.572230
v -0.000000 1.603894 -1.572230
v 0.231258 1.603894 -1.245181
v -0.231258 1.276846 -1.572230
v 0.231258 1.276846 -1.572230
v -0.231258 1.603894 -1.245181
v -0.000000 1.663476 -1.185599
v 0.000000 1.217263 -1.631812
v 0.315520 1.440370 -1.408705
v -0.315520 1.440370 -1.408706
v -0.231258 1.195083 -1.490468
v 0.231258 1.522132 -1.163419
v 0.231258 1.195084 -1.490468
v -0.231258 1.522132 -1.163419
v -0.000000 1.581714 -1.103837
v 0.000000 1.135501 -1.550050
v 0.315520 1.358608 -1.326944
v -0.315520 1.358608 -1.326944
v 0.231258 1.685656 -1.326944
v 0.231258 1.358608 -1.653992
v -0.231258 1.685656 -1.326944
v -0.000000 1.745238 -1.267361
v 0.000000 1.299025 -1.713574
v 0.315520 1.522132 -1.490468
v -0.315520 1.522132 -1.490468
v -0.231258 1.358608 -1.653992
vn -0.3304 -0.8262 -0.4563
vn -0.9069 0.0487 0.4186
vn -0.0000 0.7071 -0.7071
vn 0.9069 -0.4186 -0.0487
vn 0.3304 0.4563 0.8262
vn -0.3304 0.4563 0.8262
vn 0.3304 -0.8262 -0.4563
vn 0.9069 0.0487 0.4186
vn -0.9069 -0.4186 -0.0487
vn -0.9396 -0.2421 -0.2421
vn 0.9396 0.2421 0.2421
vn 0.3423 -0.6644 -0.6644
vn -0.3423 0.6644 0.6644
vn 0.3423 0.6644 0.6644
vn 0.9396 -0.2421 -0.2421
vn -0.9396 0.2421 0.2421
vn -0.3423 -0.6644 -0.6644
vt 0.562500 0.875000
vt 0.625000 1.000000
vt 0.562500 1.000000
vt 0.562500 0.125000
vt 0.625000 0.250000
vt 0.562500 0.250000
vt 0.250000 0.625000
vt 0.375000 0.750000
vt 0.250000 0.750000
vt 0.562500 0.625000
vt 0.625000 0.750000
vt 0.562500 0.750000
vt 0.562500 0.375000
vt 0.625000 0.500000
vt 0.562500 0.500000
vt 0.625000 0.375000
vt 0.125000 0.750000
vt 0.125000 0.625000
vt 0.625000 0.875000
vt 0.125000 0.500000
vt 0.625000 0.625000
vt 0.375000 0.500000
vt 0.250000 0.500000
vt 0.562500 0.000000
vt 0.625000 0.125000
vt 0.500000 0.000000
vt 0.437500 0.125000
vt 0.437500 0.000000
vt 0.500000 0.500000
vt 0.437500 0.625000
vt 0.437500 0.500000
vt 0.500000 0.750000
vt 0.437500 0.875000
vt 0.437500 0.750000
vt 0.500000 0.250000
vt 0.437500 0.375000
vt 0.437500 0.250000
vt 0.500000 0.375000
vt 0.500000 0.625000
vt 0.500000 0.125000
vt 0.500000 0.875000
vt 0.437500 1.000000
vt 0.500000 1.000000
vt 0.375000 1.000000
vt 0.375000 0.875000
vt 0.375000 0.250000
vt 0.375000 0.125000
vt 0.375000 0.625000
vt 0.375000 0.375000
vt 0.375000 0.000000
s 0
usemtl Material
f 24/1/1 1/2/1 19/3/1
f 26/4/2 1/5/2 22/6/2
f 10/7/3 3/8/3 7/9/3
f 25/10/4 1/11/4 21/12/4
f 23/13/5 1/14/5 20/15/5
f 22/6/6 1/16/6 23/13/6
f 10/7/3 5/17/3 8/18/3
f 21/12/7 1/19/7 24/1/7
f 4/20/3 10/7/3 8/18/3
f 20/15/8 1/21/8 25/10/8
f 2/22/3 10/7/3 6/23/3
f 19/24/9 1/25/9 26/4/9
f 12/26/10 33/27/10 34/28/10
f 11/29/11 32/30/11 27/31/11
f 13/32/12 31/33/12 28/34/12
f 14/35/13 30/36/13 29/37/13
f 15/38/14 27/31/14 30/36/14
f 17/39/15 28/34/15 32/30/15
f 18/40/16 29/37/16 33/27/16
f 16/41/17 34/42/17 31/33/17
f 19/24/10 18/40/10 12/26/10
f 20/15/11 17/39/11 11/29/11
f 21/12/12 16/41/12 13/32/12
f 22/6/13 15/38/13 14/35/13
f 23/13/14 11/29/14 15/38/14
f 25/10/15 13/32/15 17/39/15
f 26/4/16 14/35/16 18/40/16
f 24/1/17 12/43/17 16/41/17
f 31/33/17 5/44/17 7/45/17
f 33/27/16 4/46/16 8/47/16
f 32/30/15 3/8/15 9/48/15
f 30/36/14 2/22/14 6/49/14
f 29/37/13 6/49/13 4/46/13
f 28/34/12 7/45/12 3/8/12
f 27/31/11 9/48/11 2/22/11
f 34/28/10 8/47/10 5/50/10
f 10/7/3 9/48/3 3/8/3
f 10/7/3 7/9/3 5/17/3
f 4/20/3 6/23/3 10/7/3
f 2/22/3 9/48/3 10/7/3
f 12/26/10 18/40/10 33/27/10
f 11/29/11 17/39/11 32/30/11
f 13/32/12 16/41/12 31/33/12
f 14/35/13 15/38/13 30/36/13
f 15/38/14 11/29/14 27/31/14
f 17/39/15 13/32/15 28/34/15
f 18/40/16 14/35/16 29/37/16
f 16/41/17 12/43/17 34/42/17
f 19/24/10 26/4/10 18/40/10
f 20/15/11 25/10/11 17/39/11
f 21/12/12 24/1/12 16/41/12
f 22/6/13 23/13/13 15/38/13
f 23/13/14 20/15/14 11/29/14
f 25/10/15 21/12/15 13/32/15
f 26/4/16 22/6/16 14/35/16
f 24/1/17 19/3/17 12/43/17
f 31/33/17 34/42/17 5/44/17
f 33/27/16 29/37/16 4/46/16
f 32/30/15 28/34/15 3/8/15
f 30/36/14 27/31/14 2/22/14
f 29/37/13 30/36/13 6/49/13
f 28/34/12 31/33/12 7/45/12
f 27/31/11 32/30/11 9/48/11
f 34/28/10 33/27/10 8/47/10
o Cube.001
v 0.000001 0.561784 0.576676
v 0.231258 1.401602 1.770168
v 0.231258 1.732900 1.447426
v -0.231258 1.401602 1.770168
v -0.231258 1.732900 1.447425
v -0.000000 1.341246 1.828966
v -0.000000 1.793257 1.388628
v -0.315520 1.567251 1.608797
v 0.315520 1.567251 1.608797
v -0.000000 1.567251 1.608797
v 0.231258 1.240231 1.604519
v -0.231258 1.571529 1.281776
v 0.231258 1.571529 1.281777
v -0.231258 1.240231 1.604519
v -0.000000 1.179874 1.663317
v -0.000000 1.631885 1.222979
v 0.315520 1.405880 1.443148
v -0.315520 1.405880 1.443148
v -0.231258 1.490843 1.198952
v 0.231258 1.159545 1.521695
v 0.231258 1.490843 1.198952
v -0.231258 1.159545 1.521694
v -0.000000 1.099189 1.580492
v -0.000000 1.551200 1.140154
v 0.315520 1.325194 1.360324
v -0.315520 1.325194 1.360323
v 0.231258 1.320917 1.687344
v 0.231258 1.652215 1.364601
v -0.231258 1.320916 1.687343
v -0.000000 1.260560 1.746141
v -0.000000 1.712571 1.305803
v 0.315520 1.486566 1.525972
v -0.315520 1.486565 1.525972
v -0.231258 1.652214 1.364601
vn -0.3304 0.4671 -0.8202
vn -0.9069 -0.4192 0.0432
vn -0.0000 0.6978 0.7163
vn 0.9069 0.0542 -0.4179
vn 0.3304 -0.8321 0.4455
vn -0.3304 -0.8321 0.4455
vn 0.3304 0.4671 -0.8202
vn 0.9069 -0.4192 0.0432
vn -0.9069 0.0542 -0.4179
vn -0.9396 0.2452 -0.2389
vn 0.9396 -0.2452 0.2389
vn 0.3423 0.6730 -0.6556
vn -0.3423 -0.6730 0.6556
vn 0.3423 -0.6730 0.6556
vn 0.9396 0.2452 -0.2389
vn -0.9396 -0.2452 0.2389
vn -0.3423 0.6730 -0.6556
vt 0.562500 0.875000
vt 0.625000 1.000000
vt 0.562500 1.000000
vt 0.562500 0.125000
vt 0.625000 0.250000
vt 0.562500 0.250000
vt 0.250000 0.625000
vt 0.375000 0.750000
vt 0.250000 0.750000
vt 0.562500 0.625000
vt 0.625000 0.750000
vt 0.562500 0.750000
vt 0.562500 0.375000
vt 0.625000 0.500000
vt 0.562500 0.500000
vt 0.625000 0.375000
vt 0.125000 0.750000
vt 0.125000 0.625000
vt 0.625000 0.875000
vt 0.125000 0.500000
vt 0.625000 0.625000
vt 0.375000 0.500000
vt 0.250000 0.500000
vt 0.562500 0.000000
vt 0.625000 0.125000
vt 0.500000 0.000000
vt 0.437500 0.125000
vt 0.437500 0.000000
vt 0.500000 0.500000
vt 0.437500 0.625000
vt 0.437500 0.500000
vt 0.500000 0.750000
vt 0.437500 0.875000
vt 0.437500 0.750000
vt 0.500000 0.250000
vt 0.437500 0.375000
vt 0.437500 0.250000
vt 0.500000 0.375000
vt 0.500000 0.625000
vt 0.500000 0.125000
vt 0.500000 0.875000
vt 0.437500 1.000000
vt 0.500000 1.000000
vt 0.375000 1.000000
vt 0.375000 0.875000
vt 0.375000 0.250000
vt 0.375000 0.125000
vt 0.375000 0.625000
vt 0.375000 0.375000
vt 0.375000 0.000000
s 0
usemtl Material.001
f 58/51/18 35/52/18 53/53/18
f 60/54/19 35/55/19 56/56/19
f 44/57/20 37/58/20 41/59/20
f 59/60/21 35/61/21 55/62/21
f 57/63/22 35/64/22 54/65/22
f 56/56/23 35/66/23 57/63/23
f 44/57/20 39/67/20 42/68/20
f 55/62/24 35/69/24 58/51/24
f 38/70/20 44/57/20 42/68/20
f 54/65/25 35/71/25 59/60/25
f 36/72/20 44/57/20 40/73/20
f 53/74/26 35/75/26 60/54/26
f 46/76/27 67/77/27 68/78/27
f 45/79/28 66/80/28 61/81/28
f 47/82/29 65/83/29 62/84/29
f 48/85/30 64/86/30 63/87/30
f 49/88/31 61/81/31 64/86/31
f 51/89/32 62/84/32 66/80/32
f 52/90/33 63/87/33 67/77/33
f 50/91/34 68/92/34 65/83/34
f 53/74/27 52/90/27 46/76/27
f 54/65/28 51/89/28 45/79/28
f 55/62/29 50/91/29 47/82/29
f 56/56/30 49/88/30 48/85/30
f 57/63/31 45/79/31 49/88/31
f 59/60/32 47/82/32 51/89/32
f 60/54/33 48/85/33 52/90/33
f 58/51/34 46/93/34 50/91/34
f 65/83/34 39/94/34 41/95/34
f 67/77/33 38/96/33 42/97/33
f 66/80/32 37/58/32 43/98/32
f 64/86/31 36/72/31 40/99/31
f 63/87/30 40/99/30 38/96/30
f 62/84/29 41/95/29 37/58/29
f 61/81/28 43/98/28 36/72/28
f 68/78/27 42/97/27 39/100/27
f 44/57/20 43/98/20 37/58/20
f 44/57/20 41/59/20 39/67/20
f 38/70/20 40/73/20 44/57/20
f 36/72/20 43/98/20 44/57/20
f 46/76/27 52/90/27 67/77/27
f 45/79/28 51/89/28 66/80/28
f 47/82/29 50/91/29 65/83/29
f 48/85/30 49/88/30 64/86/30
f 49/88/31 45/79/31 61/81/31
f 51/89/32 47/82/32 62/84/32
f 52/90/33 48/85/33 63/87/33
f 50/91/34 46/93/34 68/92/34
f 53/74/27 60/54/27 52/90/27
f 54/65/28 59/60/28 51/89/28
f 55/62/29 58/51/29 50/91/29
f 56/56/30 57/63/30 49/88/30
f 57/63/31 54/65/31 45/79/31
f 59/60/32 55/62/32 47/82/32
f 60/54/33 56/56/33 48/85/33
f 58/51/34 53/53/34 46/93/34
f 65/83/34 68/92/34 39/94/34
f 67/77/33 63/87/33 38/96/33
f 66/80/32 62/84/32 37/58/32
f 64/86/31 61/81/31 36/72/31
f 63/87/30 64/86/30 40/99/30
f 62/84/29 65/83/29 41/95/29
f 61/81/28 66/80/28 43/98/28
f 68/78/27 67/77/27 42/97/27
o Cube.002
v 0.000001 -0.576686 0.561775
v 0.231258 -1.770192 1.401572
v 0.231258 -1.447455 1.732876
v -0.231258 -1.770192 1.401572
v -0.231258 -1.447455 1.732875
v -0.000000 -1.828989 1.341215
v -0.000000 -1.388658 1.793233
v -0.315520 -1.608823 1.567224
v 0.315520 -1.608824 1.567224
v -0.000000 -1.608824 1.567224
v 0.231258 -1.604540 1.240204
v -0.231258 -1.281803 1.571507
v 0.231258 -1.281803 1.571507
v -0.231258 -1.604540 1.240204
v -0.000000 -1.663337 1.179846
v -0.000000 -1.223007 1.631865
v 0.315520 -1.443172 1.405855
v -0.315520 -1.443172 1.405855
v -0.231258 -1.198977 1.490823
v 0.231258 -1.521714 1.159520
v 0.231258 -1.198978 1.490823
v -0.231258 -1.521714 1.159519
v -0.000000 -1.580511 1.099162
v -0.000000 -1.140181 1.551180
v 0.315520 -1.360346 1.325171
v -0.315520 -1.360346 1.325171
v 0.231258 -1.687366 1.320888
v 0.231258 -1.364629 1.652191
v -0.231258 -1.687366 1.320888
v -0.000000 -1.746163 1.260530
v -0.000000 -1.305833 1.712549
v 0.315520 -1.525998 1.486540
v -0.315520 -1.525998 1.486539
v -0.231258 -1.364629 1.652191
vn -0.3304 0.8201 0.4671
vn -0.9069 -0.0432 -0.4192
vn -0.0000 -0.7163 0.6978
vn 0.9069 0.4179 0.0542
vn 0.3304 -0.4455 -0.8321
vn -0.3304 -0.4455 -0.8321
vn 0.3304 0.8201 0.4671
vn 0.9069 -0.0432 -0.4192
vn -0.9069 0.4179 0.0542
vn -0.9396 0.2389 0.2452
vn 0.9396 -0.2389 -0.2452
vn 0.3423 0.6556 0.6730
vn -0.3423 -0.6556 -0.6730
vn 0.3423 -0.6556 -0.6730
vn 0.9396 0.2389 0.2452
vn -0.9396 -0.2389 -0.2452
vn -0.3423 0.6556 0.6730
vt 0.562500 0.875000
vt 0.625000 1.000000
vt 0.562500 1.000000
vt 0.562500 0.125000
vt 0.625000 0.250000
vt 0.562500 0.250000
vt 0.250000 0.625000
vt 0.375000 0.750000
vt 0.250000 0.750000
vt 0.562500 0.625000
vt 0.625000 0.750000
vt 0.562500 0.750000
vt 0.562500 0.375000
vt 0.625000 0.500000
vt 0.562500 0.500000
vt 0.625000 0.375000
vt 0.125000 0.750000
vt 0.125000 0.625000
vt 0.625000 0.875000
vt 0.125000 0.500000
vt 0.625000 0.625000
vt 0.375000 0.500000
vt 0.250000 0.500000
vt 0.562500 0.000000
vt 0.625000 0.125000
vt 0.500000 0.000000
vt 0.437500 0.125000
vt 0.437500 0.000000
vt 0.500000 0.500000
vt 0.437500 0.625000
vt 0.437500 0.500000
vt 0.500000 0.750000
vt 0.437500 0.875000
vt 0.437500 0.750000
vt 0.500000 0.250000
vt 0.437500 0.375000
vt 0.437500 0.250000
vt 0.500000 0.375000
vt 0.500000 0.625000
vt 0.500000 0.125000
vt 0.500000 0.875000
vt 0.437500 1.000000
vt 0.500000 1.000000
vt 0.375000 1.000000
vt 0.375000 0.875000
vt 0.375000 0.250000
vt 0.375000 0.125000
vt 0.375000 0.625000
vt 0.375000 0.375000
vt 0.375000 0.000000
s 0
usemtl Material.002
f 92/101/35 69/102/35 87/103/35
f 94/104/36 69/105/36 90/106/36
f 78/107/37 71/108/37 75/109/37
f 93/110/38 69/111/38 89/112/38
f 91/113/39 69/114/39 88/115/39
f 90/106/40 69/116/40 91/113/40
f 78/107/37 73/117/37 76/118/37
f 89/112/41 69/119/41 92/101/41
f 72/120/37 78/107/37 76/118/37
f 88/115/42 69/121/42 93/110/42
f 70/122/37 78/107/37 74/123/37
f 87/124/43 69/125/43 94/104/43
f 80/126/44 101/127/44 102/128/44
f 79/129/45 100/130/45 95/131/45
f 81/132/46 99/133/46 96/134/46
f 82/135/47 98/136/47 97/137/47
f 83/138/48 95/131/48 98/136/48
f 85/139/49 96/134/49 100/130/49
f 86/140/50 97/137/50 101/127/50
f 84/141/51 102/142/51 99/133/51
f 87/124/44 86/140/44 80/126/44
f 88/115/45 85/139/45 79/129/45
f 89/112/46 84/141/46 81/132/46
f 90/106/47 83/138/47 82/135/47
f 91/113/48 79/129/48 83/138/48
f 93/110/49 81/132/49 85/139/49
f 94/104/50 82/135/50 86/140/50
f 92/101/51 80/143/51 84/141/51
f 99/133/51 73/144/51 75/145/51
f 101/127/50 72/146/50 76/147/50
f 100/130/49 71/108/49 77/148/49
f 98/136/48 70/122/48 74/149/48
f 97/137/47 74/149/47 72/146/47
f 96/134/46 75/145/46 71/108/46
f 95/131/45 77/148/45 70/122/45
f 102/128/44 76/147/44 73/150/44
f 78/107/37 77/148/37 71/108/37
f 78/107/37 75/109/37 73/117/37
f 72/120/37 74/123/37 78/107/37
f 70/122/37 77/148/37 78/107/37
f 80/126/44 86/140/44 101/127/44
f 79/129/45 85/139/45 100/130/45
f 81/132/46 84/141/46 99/133/46
f 82/135/47 83/138/47 98/136/47
f 83/138/48 79/129/48 95/131/48
f 85/139/49 81/132/49 96/134/49
f 86/140/50 82/135/50 97/137/50
f 84/141/51 80/143/51 102/142/51
f 87/124/44 94/104/44 86/140/44
f 88/115/45 93/110/45 85/139/45
f 89/112/46 92/101/46 84/141/46
f 90/106/47 91/113/47 83/138/47
f 91/113/48 88/115/48 79/129/48
f 93/110/49 89/112/49 81/132/49
f 94/104/50 90/106/50 82/135/50
f 92/101/51 87/103/51 80/143/51
f 99/133/51 102/142/51 73/144/51
f 101/127/50 97/137/50 72/146/50
f 100/130/49 96/134/49 71/108/49
f 98/136/48 95/131/48 70/122/48
f 97/137/47 98/136/47 74/149/47
f 96/134/46 99/133/46 75/145/46
f 95/131/45 100/130/45 77/148/45
f 102/128/44 101/127/44 76/147/44
o Cube.003
v 0.000000 -0.561836 -0.576626
v 0.231258 -1.401761 -1.770043
v 0.231258 -1.733030 -1.447270
v -0.231258 -1.401761 -1.770042
v -0.231258 -1.733030 -1.447270
v -0.000000 -1.341410 -1.828846
v -0.000000 -1.793381 -1.388467
v -0.315520 -1.567395 -1.608656
v 0.315520 -1.567396 -1.608657
v -0.000000 -1.567396 -1.608656
v 0.231258 -1.240375 -1.604408
v -0.231258 -1.571644 -1.281636
v 0.231258 -1.571644 -1.281636
v -0.231258 -1.240375 -1.604408
v -0.000000 -1.180024 -1.663211
v -0.000000 -1.631995 -1.222833
v 0.315520 -1.406009 -1.443022
v -0.315520 -1.406009 -1.443022
v -0.231258 -1.490951 -1.198819
v 0.231258 -1.159682 -1.521591
v 0.231258 -1.490951 -1.198819
v -0.231258 -1.159682 -1.521591
v -0.000000 -1.099331 -1.580394
v 0.000000 -1.551302 -1.140015
v 0.315520 -1.325316 -1.360205
v -0.315520 -1.325316 -1.360205
v 0.231258 -1.321068 -1.687225
v 0.231258 -1.652337 -1.364453
v -0.231258 -1.321068 -1.687225
v -0.000000 -1.260717 -1.746028
v -0.000000 -1.712688 -1.305650
v 0.315520 -1.486703 -1.525839
v -0.315520 -1.486702 -1.525839
v -0.231258 -1.652337 -1.364453
vn -0.3304 -0.4670 0.8202
vn -0.9069 0.4192 -0.0433
vn -0.0000 -0.6979 -0.7162
vn 0.9069 -0.0541 0.4179
vn 0.3304 0.8320 -0.4455
vn -0.3304 0.8320 -0.4455
vn 0.3304 -0.4670 0.8202
vn 0.9069 0.4192 -0.0433
vn -0.9069 -0.0541 0.4179
vn -0.9396 -0.2452 0.2389
vn 0.9396 0.2452 -0.2389
vn 0.3423 -0.6730 0.6557
vn -0.3423 0.6730 -0.6557
vn 0.3423 0.6730 -0.6557
vn 0.9396 -0.2452 0.2389
vn -0.9396 0.2452 -0.2389
vn -0.3423 -0.6730 0.6557
vt 0.562500 0.875000
vt 0.625000 1.000000
vt 0.562500 1.000000
vt 0.562500 0.125000
vt 0.625000 0.250000
vt 0.562500 0.250000
vt 0.250000 0.625000
vt 0.375000 0.750000
vt 0.250000 0.750000
vt 0.562500 0.625000
vt 0.625000 0.750000
vt 0.562500 0.750000
vt 0.562500 0.375000
vt 0.625000 0.500000
vt 0.562500 0.500000
vt 0.625000 0.375000
vt 0.125000 0.750000
vt 0.125000 0.625000
vt 0.625000 0.875000
vt 0.125000 0.500000
vt 0.625000 0.625000
vt 0.375000 0.500000
vt 0.250000 0.500000
vt 0.562500 0.000000
vt 0.625000 0.125000
vt 0.500000 0.000000
vt 0.437500 0.125000
vt 0.437500 0.000000
vt 0.500000 0.500000
vt 0.437500 0.625000
vt 0.437500 0.500000
vt 0.500000 0.750000
vt 0.437500 0.875000
vt 0.437500 0.750000
vt 0.500000 0.250000
vt 0.437500 0.375000
vt 0.437500 0.250000
vt 0.500000 0.375000
vt 0.500000 0.625000
vt 0.500000 0.125000
vt 0.500000 0.875000
vt 0.437500 1.000000
vt 0.500000 1.000000
vt 0.375000 1.000000
vt 0.375000 0.875000
vt 0.375000 0.250000
vt 0.375000 0.125000
vt 0.375000 0.625000
vt 0.375000 0.375000
vt 0.375000 0.000000
s 0
usemtl Material.003
f 126/151/52 103/152/52 121/153/52
f 128/154/53 103/155/53 124/156/53
f 112/157/54 105/158/54 109/159/54
f 127/160/55 103/161/55 123/162/55
f 125/163/56 103/164/56 122/165/56
f 124/156/57 103/166/57 125/163/57
f 112/157/54 107/167/54 110/168/54
f 123/162/58 103/169/58 126/151/58
f 106/170/54 112/157/54 110/168/54
f 122/165/59 103/171/59 127/160/59
f 104/172/54 112/157/54 108/173/54
f 121/174/60 103/175/60 128/154/60
f 114/176/61 135/177/61 136/178/61
f 113/179/62 134/180/62 129/181/62
f 115/182/63 133/183/63 130/184/63
f 116/185/64 132/186/64 131/187/64
f 117/188/65 129/181/65 132/186/65
f 119/189/66 130/184/66 134/180/66
f 120/190/67 131/187/67 135/177/67
f 118/191/68 136/192/68 133/183/68
f 121/174/61 120/190/61 114/176/61
f 122/165/62 119/189/62 113/179/62
f 123/162/63 118/191/63 115/182/63
f 124/156/64 117/188/64 116/185/64
f 125/163/65 113/179/65 117/188/65
f 127/160/66 115/182/66 119/189/66
f 128/154/67 116/185/67 120/190/67
f 126/151/68 114/193/68 118/191/68
f 133/183/68 107/194/68 109/195/68
f 135/177/67 106/196/67 110/197/67
f 134/180/66 105/158/66 111/198/66
f 132/186/65 104/172/65 108/199/65
f 131/187/64 108/199/64 106/196/64
f 130/184/63 109/195/63 105/158/63
f 129/181/62 111/198/62 104/172/62
f 136/178/61 110/197/61 107/200/61
f 112/157/54 111/198/54 105/158/54
f 112/157/54 109/159/54 107/167/54
f 106/170/54 108/173/54 112/157/54
f 104/172/54 111/198/54 112/157/54
f 114/176/61 120/190/61 135/177/61
f 113/179/62 119/189/62 134/180/62
f 115/182/63 118/191/63 133/183/63
f 116/185/64 117/188/64 132/186/64
f 117/188/65 113/179/65 129/181/65
f 119/189/66 115/182/66 130/184/66
f 120/190/67 116/185/67 131/187/67
f 118/191/68 114/193/68 136/192/68
f 121/174/61 128/154/61 120/190/61
f 122/165/62 127/160/62 119/189/62
f 123/162/63 126/151/63 118/191/63
f 124/156/64 125/163/64 117/188/64
f 125/163/65 122/165/65 113/179/65
f 127/160/66 123/162/66 115/182/66
f 128/154/67 124/156/67 116/185/67
f 126/151/68 121/153/68 114/193/68
f 133/183/68 136/192/68 107/194/68
f 135/177/67 131/187/67 106/196/67
f 134/180/66 130/184/66 105/158/66
f 132/186/65 129/181/65 104/172/65
f 131/187/64 132/186/64 108/199/64
f 130/184/63 133/183/63 109/195/63
f 129/181/62 134/180/62 111/198/62
f 136/178/61 135/177/61 110/197/61
