# Blender 4.1.1
# www.blender.org
mtllib Missle.mtl
o Icosphere
v 0.000000 -1.000000 0.000000
v 0.723607 -0.447220 0.528980
v -0.276388 -0.447220 1.982438
v -0.894426 -0.447216 0.000000
v -0.276388 -0.447220 -1.982438
v 0.723607 -0.447220 -0.528980
v 0.276388 0.447220 1.982438
v -0.723607 0.447220 0.528980
v -0.723607 0.447220 -0.528980
v 0.276388 0.447220 -1.982438
v 0.894426 0.447216 0.000000
v 0.000000 1.000000 0.000000
v -0.162456 -0.850654 0.499995
v 0.425323 -0.850654 0.309011
v 0.262869 -0.525738 1.624876
v 0.850648 -0.525736 0.000000
v 0.425323 -0.850654 -0.309011
v -0.525730 -0.850652 0.000000
v -0.688189 -0.525736 0.499997
v -0.162456 -0.850654 -0.499995
v -0.688189 -0.525736 -0.499997
v 0.262869 -0.525738 -1.624876
v 0.951058 0.000000 0.309013
v 0.951058 0.000000 -0.309013
v 0.000000 0.000000 4.091328
v 0.587786 0.000000 1.624916
v -0.951058 0.000000 0.309013
v -0.587786 0.000000 1.624916
v -0.587786 0.000000 -1.624916
v -0.951058 0.000000 -0.309013
v 0.587786 0.000000 -1.624916
v 0.000000 0.000000 -4.091328
v 0.688189 0.525736 0.499997
v -0.262869 0.525738 1.624876
v -0.850648 0.525736 0.000000
v -0.262869 0.525738 -1.624876
v 0.688189 0.525736 -0.499997
v 0.162456 0.850654 0.499995
v 0.525730 0.850652 0.000000
v -0.425323 0.850654 0.309011
v -0.425323 0.850654 -0.309011
v 0.162456 0.850654 -0.499995
vn 0.1024 -0.9435 0.3151
vn 0.6999 -0.6627 0.2664
vn -0.2680 -0.9435 0.1947
vn -0.2680 -0.9435 -0.1947
vn 0.1024 -0.9435 -0.3151
vn 0.9057 -0.3296 0.2664
vn -0.0045 -0.9781 0.2080
vn -0.8897 -0.3304 0.3151
vn -0.8777 -0.3993 -0.2650
vn 0.8102 -0.5007 -0.3047
vn 0.9071 -0.3382 0.2504
vn -0.8728 -0.4415 0.2080
vn -0.9921 -0.1256 -0.0000
vn -0.8728 -0.4415 -0.2080
vn 0.9071 -0.3382 -0.2504
vn 0.5164 0.8355 0.1877
vn -0.7082 0.6601 0.2504
vn -0.6999 0.6627 -0.2664
vn -0.0354 0.9636 -0.2650
vn 0.7240 0.6617 -0.1947
vn 0.2680 0.9435 -0.1947
vn 0.4911 0.7947 -0.3568
vn 0.5164 0.8355 -0.1877
vn -0.1024 0.9435 -0.3151
vn -0.0807 0.9653 -0.2483
vn -0.7082 0.6601 -0.2504
vn -0.3313 0.9435 -0.0000
vn -0.6071 0.7947 -0.0000
vn -0.6999 0.6627 0.2664
vn -0.1024 0.9435 0.3151
vn -0.0807 0.9653 0.2483
vn -0.0354 0.9636 0.2650
vn 0.2680 0.9435 0.1947
vn 0.4911 0.7947 0.3568
vn 0.7240 0.6617 0.1947
vn 0.8897 0.3304 -0.3151
vn 0.8995 0.3595 -0.2483
vn 0.8777 0.3993 -0.2650
vn 0.0045 0.9781 -0.2080
vn -0.8337 0.5153 -0.1987
vn -0.8102 0.5007 -0.3047
vn -0.9057 0.3296 -0.2664
vn -0.9822 0.1876 -0.0000
vn -0.9057 0.3296 0.2664
vn -0.8102 0.5007 0.3047
vn -0.8337 0.5153 0.1987
vn 0.0045 0.9781 0.2080
vn 0.8777 0.3993 0.2650
vn 0.8995 0.3595 0.2483
vn 0.8897 0.3304 0.3151
vn 0.8728 0.4415 -0.2080
vn 0.8337 -0.5153 -0.1987
vn -0.0045 -0.9781 -0.2080
vn -0.9071 0.3382 -0.2504
vn -0.8995 -0.3595 -0.2483
vn -0.8897 -0.3304 -0.3151
vn -0.9071 0.3382 0.2504
vn -0.8995 -0.3595 0.2483
vn -0.8777 -0.3993 0.2650
vn 0.8728 0.4415 0.2080
vn 0.8337 -0.5153 0.1987
vn 0.8102 -0.5007 0.3047
vn 0.9921 0.1256 -0.0000
vn 0.9822 -0.1876 -0.0000
vn 0.9057 -0.3296 -0.2664
vn 0.7082 -0.6601 -0.2504
vn 0.0807 -0.9653 -0.2483
vn 0.0354 -0.9636 -0.2650
vn -0.5164 -0.8355 -0.1877
vn -0.4911 -0.7947 -0.3568
vn -0.7240 -0.6617 -0.1947
vn -0.7240 -0.6617 0.1947
vn -0.4911 -0.7947 0.3568
vn -0.5164 -0.8355 0.1877
vn 0.6999 -0.6627 -0.2664
vn 0.6071 -0.7947 -0.0000
vn 0.3313 -0.9435 -0.0000
vn 0.0354 -0.9636 0.2650
vn 0.0807 -0.9653 0.2483
vn 0.7082 -0.6601 0.2504
vt 0.446188 0.467749
vt 0.386151 0.471572
vt 0.423526 0.409178
vt 0.323133 0.486185
vt 0.362166 0.536060
vt 0.492354 0.430216
vt 0.498901 0.501889
vt 0.430192 0.525743
vt 0.291459 0.545577
vt 0.292697 0.229480
vt 0.270203 0.330284
vt 0.000090 0.000090
vt 0.540943 0.390713
vt 0.482160 0.356475
vt 0.557754 0.322720
vt 0.648112 0.666642
vt 0.562463 0.455247
vt 0.706378 0.576084
vt 0.403024 0.584451
vt 0.544839 0.668088
vt 0.474510 0.735382
vt 0.189971 0.385397
vt 0.393241 0.190925
vt 0.610936 0.388134
vt 0.812950 0.999910
vt 0.338417 0.603336
vt 0.084934 0.366421
vt 0.214670 0.567895
vt 0.134301 0.616878
vt 0.582375 0.245653
vt 0.441795 0.092185
vt 0.673883 0.199956
vt 0.691406 0.379762
vt 0.644426 0.306580
vt 0.754818 0.299507
vt 0.471648 0.842081
vt 0.376412 0.905465
vt 0.236540 0.742633
vt 0.273147 0.608433
vt 0.300896 0.673953
vt 0.219522 0.652030
vt 0.157646 0.702336
vt 0.138300 0.802264
vt 0.812950 0.548706
vt 0.055873 0.700878
vt 0.003445 0.446715
s 0
f 1/1/1 14/2/1 13/3/1
f 2/4/2 14/2/2 16/5/2
f 1/1/3 13/3/3 18/6/3
f 1/1/4 18/6/4 20/7/4
f 1/1/5 20/7/5 17/8/5
f 2/4/6 16/5/6 23/9/6
f 3/10/7 15/11/7 25/12/7
f 4/13/8 19/14/8 27/15/8
f 5/16/9 21/17/9 29/18/9
f 6/19/10 22/20/10 31/21/10
f 2/4/11 23/9/11 26/22/11
f 3/10/12 25/12/12 28/23/12
f 4/13/13 27/15/13 30/24/13
f 5/16/14 29/18/14 32/25/14
f 6/19/15 31/21/15 24/26/15
f 7/27/16 33/28/16 38/29/16
f 8/30/17 34/31/17 40/32/17
f 9/33/18 35/34/18 41/35/18
f 10/36/19 36/37/19 42/38/19
f 11/39/20 37/40/20 39/41/20
f 39/41/21 42/38/21 12/42/21
f 39/41/22 37/40/22 42/38/22
f 37/40/23 10/36/23 42/38/23
f 42/38/24 41/43/24 12/42/24
f 42/38/25 36/37/25 41/43/25
f 36/44/26 9/33/26 41/35/26
f 41/43/27 40/45/27 12/42/27
f 41/35/28 35/34/28 40/32/28
f 35/34/29 8/30/29 40/32/29
f 40/45/30 38/29/30 12/42/30
f 40/45/31 34/46/31 38/29/31
f 34/46/32 7/27/32 38/29/32
f 38/29/33 39/41/33 12/42/33
f 38/29/34 33/28/34 39/41/34
f 33/28/35 11/39/35 39/41/35
f 24/26/36 37/40/36 11/39/36
f 24/26/37 31/21/37 37/40/37
f 31/21/38 10/36/38 37/40/38
f 32/25/39 36/37/39 10/36/39
f 32/25/40 29/18/40 36/44/40
f 29/18/41 9/33/41 36/44/41
f 30/24/42 35/34/42 9/33/42
f 30/24/43 27/15/43 35/34/43
f 27/15/44 8/30/44 35/34/44
f 28/23/45 34/31/45 8/30/45
f 28/23/46 25/12/46 34/31/46
f 25/12/47 7/27/47 34/46/47
f 26/22/48 33/28/48 7/27/48
f 26/22/49 23/9/49 33/28/49
f 23/9/50 11/39/50 33/28/50
f 31/21/51 32/25/51 10/36/51
f 31/21/52 22/20/52 32/25/52
f 22/20/53 5/16/53 32/25/53
f 29/18/54 30/24/54 9/33/54
f 29/18/55 21/17/55 30/24/55
f 21/17/56 4/13/56 30/24/56
f 27/15/57 28/23/57 8/30/57
f 27/15/58 19/14/58 28/23/58
f 19/14/59 3/10/59 28/23/59
f 25/12/60 26/22/60 7/27/60
f 25/12/61 15/11/61 26/22/61
f 15/11/62 2/4/62 26/22/62
f 23/9/63 24/26/63 11/39/63
f 23/9/64 16/5/64 24/26/64
f 16/5/65 6/19/65 24/26/65
f 17/8/66 22/20/66 6/19/66
f 17/8/67 20/7/67 22/20/67
f 20/7/68 5/16/68 22/20/68
f 20/7/69 21/17/69 5/16/69
f 20/7/70 18/6/70 21/17/70
f 18/6/71 4/13/71 21/17/71
f 18/6/72 19/14/72 4/13/72
f 18/6/73 13/3/73 19/14/73
f 13/3/74 3/10/74 19/14/74
f 16/5/75 17/8/75 6/19/75
f 16/5/76 14/2/76 17/8/76
f 14/2/77 1/1/77 17/8/77
f 13/3/78 15/11/78 3/10/78
f 13/3/79 14/2/79 15/11/79
f 14/2/80 2/4/80 15/11/80
